<svg width="50" height="50" viewBox="0 0 50 50" fill="none" xmlns="http://www.w3.org/2000/svg">
<rect width="50" height="50" rx="25" fill="#E3492B"/>
<path fill-rule="evenodd" clip-rule="evenodd" d="M30.7956 22.4919L30.8585 22.2224C30.8907 22.0835 30.9207 21.9397 30.934 21.7977L30.934 21.7977C30.987 21.5578 31.029 21.3678 31.0932 21.1566L31.2486 20.6679C31.9646 18.3605 32.4863 15.417 28.148 13.5163C27.8042 13.3652 27.5932 13.3641 27.5054 13.4203C27.4457 13.4584 27.4782 13.5515 27.5398 13.7283L27.5398 13.7283L27.5398 13.7284C27.569 13.8121 27.6047 13.9145 27.6402 14.0386C27.7977 14.5642 27.6225 15.1731 27.4271 15.8522C26.9975 17.345 26.4702 19.1775 29.1625 21.2119C29.4696 21.4605 29.6169 21.7496 29.5374 22.1095C28.9097 24.6808 27.652 25.9665 26.2309 26.6244L26.1471 26.6624C25.6103 26.9067 25.5142 26.6591 25.7902 26.1612C26.1671 25.4435 26.3922 24.524 26.3005 23.231L26.289 23.0858C26.2565 22.5503 26.0006 22.343 25.6699 22.542C25.6075 22.5819 25.5529 22.621 25.5019 22.6575C25.3374 22.7751 25.21 22.8663 24.9782 22.8729L24.6192 22.8791C23.3601 22.911 20.9022 23.1678 20.8173 26.6327L20.8153 26.7578C20.8173 27.2262 20.6306 27.4569 20.2135 27.501L20.1927 27.5266C16.7391 28.0767 14.323 31.3642 13.4746 33.2235L13.4392 33.3023C13.267 33.672 13.4399 33.9818 13.8508 34.1023C14.2168 34.1972 14.473 34.0499 14.6453 33.7179L14.6719 33.664C15.0212 32.9709 15.6244 32.0167 16.4435 31.1099C16.7596 30.7719 17.1193 30.851 17.3738 31.2693C19.1362 33.9982 21.7531 33.5058 23.4763 33.1815C23.7753 33.1252 24.0473 33.0741 24.2834 33.0456C24.6285 32.9857 24.8762 32.8892 25.0581 32.6122L25.1411 32.5097C25.3438 32.2071 25.3867 31.9448 25.2089 31.5887C24.5636 30.3447 23.8276 29.579 23.028 29.1012L22.9392 29.0434C22.5553 28.7847 22.5996 28.6779 23.1187 28.623C24.5602 28.5174 26.1934 28.2275 27.6246 27.3497C27.9117 27.1429 28.1749 27.1047 28.5128 27.2441L28.5771 27.2724C31.4825 28.5767 32.843 27.1919 33.9878 26.0265C34.5573 25.4468 35.0734 24.9214 35.6998 24.8084L35.8485 24.7846C36.2836 24.7071 36.2938 24.6145 35.8575 24.2996C34.0135 23.0185 32.5588 22.774 31.3683 23.0405C30.8889 23.1615 30.6842 22.9957 30.7956 22.4919ZM29.7122 16.2571C30.4599 17.2435 30.4613 18.3027 30.1881 19.4358C30.0799 19.9407 29.6446 20.0538 29.2555 19.7386C28.0913 18.7602 28.2625 18.1706 28.5489 17.1848C28.602 17.0019 28.6591 16.8053 28.7123 16.5901C28.8826 16.0085 29.354 15.7977 29.7122 16.2571ZM22.8901 26.7279C23.6937 26.5017 24.3428 26.1087 24.7194 25.2862C24.9258 24.827 24.6419 24.5136 24.1379 24.523C23.1754 24.537 22.3082 24.5864 22.1657 26.1413C22.1001 26.631 22.4248 26.894 22.8901 26.7279ZM22.8127 31.8779L22.3794 31.9649C21.1104 32.2136 19.8627 32.3576 18.7894 31.148C18.3605 30.6322 18.47 30.131 18.9524 30.0581C20.4769 29.6915 21.8976 29.6622 23.1184 31.0299C23.4607 31.3914 23.3157 31.7796 22.8127 31.8779ZM32.3324 24.3539C31.2802 24.3404 30.4838 24.8694 29.7536 25.6197C29.4213 25.9795 29.5042 26.3821 29.9977 26.5301C31.1072 26.863 31.5579 26.3941 32.2622 25.6613C32.3933 25.525 32.533 25.3795 32.6875 25.2284C33.0855 24.8379 32.9737 24.37 32.3324 24.3539Z" fill="white"/>
</svg>